<svg width="29" height="18" viewBox="0 0 29 18" fill="none" xmlns="http://www.w3.org/2000/svg">
<path fill-rule="evenodd" clip-rule="evenodd" d="M16.9366 0.292063C17.1697 0.105045 17.4856 0 17.815 0C18.1443 0 18.4602 0.105045 18.6933 0.292063L28.6365 8.28138C28.8693 8.46863 29 8.72246 29 8.98711C29 9.25175 28.8693 9.50558 28.6365 9.69283L18.6933 17.6821C18.5795 17.7803 18.4423 17.859 18.2898 17.9135C18.1373 17.9681 17.9728 17.9975 17.8059 17.9998C17.639 18.0022 17.4732 17.9775 17.3185 17.9273C17.1637 17.8771 17.0231 17.8023 16.9051 17.7075C16.7871 17.6127 16.694 17.4997 16.6315 17.3754C16.569 17.251 16.5383 17.1178 16.5412 16.9837C16.5442 16.8496 16.5807 16.7174 16.6486 16.5949C16.7166 16.4724 16.8145 16.3621 16.9366 16.2707L24.7586 9.98577H1.2429C0.913265 9.98577 0.597128 9.88055 0.364038 9.69327C0.130948 9.50598 0 9.25197 0 8.98711C0 8.72224 0.130948 8.46823 0.364038 8.28094C0.597128 8.09366 0.913265 7.98844 1.2429 7.98844H24.7586L16.9366 1.70351C16.7039 1.51626 16.5731 1.26243 16.5731 0.997786C16.5731 0.733139 16.7039 0.479313 16.9366 0.292063Z" fill="white"/>
</svg>
